P2
10 10
15
11 11 9 13 11 2 1 14 0 10 
8 3 7 14 4 3 5 4 7 15 
14 3 4 2 5 5 9 9 14 13 
15 6 8 9 1 12 6 0 0 10 
10 9 8 13 11 8 7 10 2 3 
6 12 7 11 5 15 1 2 5 5 
13 5 1 5 13 3 13 3 0 5 
9 14 15 9 0 10 15 4 5 15 
11 14 4 0 0 7 10 0 4 15 
13 10 12 11 3 7 14 5 12 7 
